<?xml version="1.0" encoding="UTF-8" standalone="no"?>
<svg
   xmlns:dc="http://purl.org/dc/elements/1.1/"
   xmlns:cc="http://creativecommons.org/ns#"
   xmlns:rdf="http://www.w3.org/1999/02/22-rdf-syntax-ns#"
   xmlns:svg="http://www.w3.org/2000/svg"
   xmlns="http://www.w3.org/2000/svg"
   xmlns:xlink="http://www.w3.org/1999/xlink"
   xmlns:sodipodi="http://sodipodi.sourceforge.net/DTD/sodipodi-0.dtd"
   xmlns:inkscape="http://www.inkscape.org/namespaces/inkscape"
   width="450"
   height="730"
   id="svg2"
   version="1.1"
   inkscape:version="0.48.4 r9939"
   sodipodi:docname="BeauSapin.svg">
  <metadata
     id="metadata53">
    <rdf:RDF>
      <cc:Work
         rdf:about="">
        <dc:format>image/svg+xml</dc:format>
        <dc:type
           rdf:resource="http://purl.org/dc/dcmitype/StillImage" />
        <dc:title></dc:title>
      </cc:Work>
    </rdf:RDF>
  </metadata>
  <defs
     id="defs51">
    <defs
       id="sdfggsdlfghsdlkjhdsflk">
      <linearGradient
         id="linearGradient4602">
        <stop
           id="stop4604"
           offset="0"
           style="stop-color:#502c0a;stop-opacity:1;" />
        <stop
           id="stop4606"
           offset="1"
           style="stop-color:#090501;stop-opacity:1;" />
      </linearGradient>
      <linearGradient
         id="linearGradient3699">
        <stop
           id="stop3701"
           offset="0"
           style="stop-color:#1c6d1c;stop-opacity:1;" />
        <stop
           id="stop3703"
           offset="1"
           style="stop-color:#0b2a0b;stop-opacity:1;" />
      </linearGradient>
      <linearGradient
         id="linearGradient3691">
        <stop
           id="stop3693"
           offset="0"
           style="stop-color:#134813;stop-opacity:1;" />
        <stop
           id="stop3695"
           offset="1"
           style="stop-color:black;stop-opacity:1;" />
      </linearGradient>
      <linearGradient
         id="linearGradient3683">
        <stop
           id="stop3685"
           offset="0"
           style="stop-color:#124712;stop-opacity:1;" />
        <stop
           id="stop3687"
           offset="1"
           style="stop-color:black;stop-opacity:1;" />
      </linearGradient>
      <linearGradient
         id="linearGradient3675">
        <stop
           id="stop3677"
           offset="0"
           style="stop-color:#134813;stop-opacity:1;" />
        <stop
           id="stop3679"
           offset="1"
           style="stop-color:black;stop-opacity:1;" />
      </linearGradient>
      <linearGradient
         gradientUnits="userSpaceOnUse"
         y2="297.47092"
         x2="281.82761"
         y1="477.70328"
         x1="350.98654"
         id="linearGradient3681"
         xlink:href="#linearGradient3675" />
      <linearGradient
         gradientUnits="userSpaceOnUse"
         y2="373.02271"
         x2="260.63638"
         y1="605.64819"
         x1="354.944"
         id="linearGradient3689"
         xlink:href="#linearGradient3683" />
      <linearGradient
         gradientUnits="userSpaceOnUse"
         y2="586.12213"
         x2="268.51984"
         y1="764.25873"
         x1="342.13742"
         id="linearGradient3697"
         xlink:href="#linearGradient3691" />
      <linearGradient
         gradientUnits="userSpaceOnUse"
         y2="270.47354"
         x2="293.61911"
         y1="380.45709"
         x1="422.09732"
         id="linearGradient3705"
         xlink:href="#linearGradient3699" />
      <linearGradient
         gradientUnits="userSpaceOnUse"
         y2="808.96942"
         x2="321.43039"
         y1="838.07526"
         x1="380.34406"
         id="linearGradient4608"
         xlink:href="#linearGradient4602" />
      <linearGradient
         y2="808.96942"
         x2="321.43039"
         y1="838.07526"
         x1="380.34406"
         gradientUnits="userSpaceOnUse"
         id="linearGradient7085"
         xlink:href="#linearGradient4602" />
      <linearGradient
         y2="586.12213"
         x2="268.51984"
         y1="764.25873"
         x1="342.13742"
         gradientUnits="userSpaceOnUse"
         id="linearGradient7087"
         xlink:href="#linearGradient3691" />
      <linearGradient
         y2="373.02271"
         x2="260.63638"
         y1="605.64819"
         x1="354.944"
         gradientUnits="userSpaceOnUse"
         id="linearGradient7089"
         xlink:href="#linearGradient3683" />
      <linearGradient
         y2="297.47092"
         x2="281.82761"
         y1="477.70328"
         x1="350.98654"
         gradientUnits="userSpaceOnUse"
         id="linearGradient7091"
         xlink:href="#linearGradient3675" />
      <linearGradient
         y2="270.47354"
         x2="293.61911"
         y1="380.45709"
         x1="422.09732"
         gradientUnits="userSpaceOnUse"
         id="linearGradient7093"
         xlink:href="#linearGradient3699" />
    </defs>
    <linearGradient
       inkscape:collect="always"
       xlink:href="#linearGradient4602"
       id="linearGradient3074"
       gradientUnits="userSpaceOnUse"
       x1="380.34406"
       y1="838.07526"
       x2="321.43039"
       y2="808.96942" />
    <linearGradient
       inkscape:collect="always"
       xlink:href="#linearGradient3691"
       id="linearGradient3076"
       gradientUnits="userSpaceOnUse"
       x1="342.13742"
       y1="764.25873"
       x2="268.51984"
       y2="586.12213" />
    <linearGradient
       inkscape:collect="always"
       xlink:href="#linearGradient3683"
       id="linearGradient3078"
       gradientUnits="userSpaceOnUse"
       x1="354.944"
       y1="605.64819"
       x2="260.63638"
       y2="373.02271" />
    <linearGradient
       inkscape:collect="always"
       xlink:href="#linearGradient3675"
       id="linearGradient3080"
       gradientUnits="userSpaceOnUse"
       x1="350.98654"
       y1="477.70328"
       x2="281.82761"
       y2="297.47092" />
    <linearGradient
       inkscape:collect="always"
       xlink:href="#linearGradient3699"
       id="linearGradient3082"
       gradientUnits="userSpaceOnUse"
       x1="422.09732"
       y1="380.45709"
       x2="394.81848"
       y2="303.44861"
       gradientTransform="translate(-784.57944,-34.11215)" />
    <linearGradient
       inkscape:collect="always"
       xlink:href="#linearGradient4602"
       id="linearGradient3101"
       gradientUnits="userSpaceOnUse"
       x1="380.34406"
       y1="838.07526"
       x2="321.43039"
       y2="808.96942" />
    <linearGradient
       inkscape:collect="always"
       xlink:href="#linearGradient3691"
       id="linearGradient3103"
       gradientUnits="userSpaceOnUse"
       x1="342.13742"
       y1="764.25873"
       x2="268.51984"
       y2="586.12213" />
    <linearGradient
       inkscape:collect="always"
       xlink:href="#linearGradient3683"
       id="linearGradient3105"
       gradientUnits="userSpaceOnUse"
       x1="354.944"
       y1="605.64819"
       x2="260.63638"
       y2="373.02271" />
    <linearGradient
       inkscape:collect="always"
       xlink:href="#linearGradient3675"
       id="linearGradient3107"
       gradientUnits="userSpaceOnUse"
       x1="350.98654"
       y1="477.70328"
       x2="281.82761"
       y2="297.47092" />
    <linearGradient
       inkscape:collect="always"
       xlink:href="#linearGradient3699"
       id="linearGradient3109"
       gradientUnits="userSpaceOnUse"
       gradientTransform="translate(-784.57944,-34.11215)"
       x1="422.09732"
       y1="380.45709"
       x2="394.81848"
       y2="303.44861" />
    <linearGradient
       inkscape:collect="always"
       xlink:href="#linearGradient4602"
       id="linearGradient3127"
       gradientUnits="userSpaceOnUse"
       x1="380.34406"
       y1="838.07526"
       x2="321.43039"
       y2="808.96942" />
    <linearGradient
       inkscape:collect="always"
       xlink:href="#linearGradient3691"
       id="linearGradient3129"
       gradientUnits="userSpaceOnUse"
       x1="342.13742"
       y1="764.25873"
       x2="268.51984"
       y2="586.12213" />
    <linearGradient
       inkscape:collect="always"
       xlink:href="#linearGradient3683"
       id="linearGradient3131"
       gradientUnits="userSpaceOnUse"
       x1="354.944"
       y1="605.64819"
       x2="260.63638"
       y2="373.02271" />
    <linearGradient
       inkscape:collect="always"
       xlink:href="#linearGradient3675"
       id="linearGradient3133"
       gradientUnits="userSpaceOnUse"
       x1="350.98654"
       y1="477.70328"
       x2="281.82761"
       y2="297.47092" />
    <linearGradient
       inkscape:collect="always"
       xlink:href="#linearGradient3699"
       id="linearGradient3135"
       gradientUnits="userSpaceOnUse"
       gradientTransform="translate(-784.57944,-34.11215)"
       x1="422.09732"
       y1="380.45709"
       x2="394.81848"
       y2="303.44861" />
    <linearGradient
       inkscape:collect="always"
       xlink:href="#linearGradient4602"
       id="linearGradient3144"
       gradientUnits="userSpaceOnUse"
       x1="380.34406"
       y1="838.07526"
       x2="321.43039"
       y2="808.96942"
       gradientTransform="translate(-26.318924,-271.15424)" />
    <linearGradient
       inkscape:collect="always"
       xlink:href="#linearGradient3691"
       id="linearGradient3146"
       gradientUnits="userSpaceOnUse"
       x1="342.13742"
       y1="764.25873"
       x2="268.51984"
       y2="586.12213" />
    <linearGradient
       inkscape:collect="always"
       xlink:href="#linearGradient3683"
       id="linearGradient3148"
       gradientUnits="userSpaceOnUse"
       x1="354.944"
       y1="605.64819"
       x2="260.63638"
       y2="373.02271" />
    <linearGradient
       inkscape:collect="always"
       xlink:href="#linearGradient3675"
       id="linearGradient3150"
       gradientUnits="userSpaceOnUse"
       x1="350.98654"
       y1="477.70328"
       x2="281.82761"
       y2="297.47092" />
    <linearGradient
       inkscape:collect="always"
       xlink:href="#linearGradient3699"
       id="linearGradient3152"
       gradientUnits="userSpaceOnUse"
       gradientTransform="translate(-784.57944,-34.11215)"
       x1="422.09732"
       y1="380.45709"
       x2="394.81848"
       y2="303.44861" />
    <linearGradient
       inkscape:collect="always"
       xlink:href="#linearGradient3699"
       id="linearGradient3155"
       gradientUnits="userSpaceOnUse"
       gradientTransform="translate(-884.80802,-107.41593)"
       x1="422.09732"
       y1="380.45709"
       x2="394.81848"
       y2="303.44861" />
    <linearGradient
       inkscape:collect="always"
       xlink:href="#linearGradient3675"
       id="linearGradient3158"
       gradientUnits="userSpaceOnUse"
       x1="350.98654"
       y1="477.70328"
       x2="281.82761"
       y2="297.47092"
       gradientTransform="translate(363.69665,-122.19786)" />
    <linearGradient
       inkscape:collect="always"
       xlink:href="#linearGradient3683"
       id="linearGradient3161"
       gradientUnits="userSpaceOnUse"
       x1="354.944"
       y1="605.64819"
       x2="260.63638"
       y2="373.02271"
       gradientTransform="translate(332.99572,-11.901908)" />
    <linearGradient
       inkscape:collect="always"
       xlink:href="#linearGradient3691"
       id="linearGradient3164"
       gradientUnits="userSpaceOnUse"
       x1="342.13742"
       y1="764.25873"
       x2="268.51984"
       y2="586.12213"
       gradientTransform="translate(-14.948206,-368.94241)" />
  </defs>
  <sodipodi:namedview
     pagecolor="#ffffff"
     bordercolor="#666666"
     borderopacity="1"
     objecttolerance="10"
     gridtolerance="10"
     guidetolerance="10"
     inkscape:pageopacity="0"
     inkscape:pageshadow="2"
     inkscape:window-width="1440"
     inkscape:window-height="853"
     id="namedview49"
     showgrid="false"
     inkscape:zoom="0.87945205"
     inkscape:cx="225"
     inkscape:cy="365"
     inkscape:window-x="0"
     inkscape:window-y="25"
     inkscape:window-maximized="1"
     inkscape:current-layer="svg2" />
  <g
     id="g6436"
     transform="matrix(1.040605,0,0,1.019152,-123.7827,-136.54466)"
     style="fill:#2c2c2c;fill-opacity:1;stroke:none">
    <path
       inkscape:connector-curvature="0"
       id="path6438"
       d="m 329.86632,734.35382 44.19778,0 c 9.55534,0 17.24791,7.69257 17.24791,17.24791 l 0,120.73539 c 0,9.55535 -7.69257,11.24792 -17.24791,11.24792 l -44.19778,0 c -9.55534,0 -17.24791,-1.69257 -17.24791,-11.24792 l 0,-120.73539 c 0,-9.55534 7.69257,-17.24791 17.24791,-17.24791 z"
       style="fill:#2c2c2c;fill-opacity:1;stroke:none" />
    <g
       id="g6440"
       style="fill:#2c2c2c;fill-opacity:1;stroke:none">
      <path
         inkscape:connector-curvature="0"
         style="fill:#2c2c2c;fill-opacity:1;stroke:none"
         d="m 229.14432,355.59638 c -11.51669,-38.1366 109.20758,-180.49236 127.99853,-180.37706 20.10894,0.13147 117.66195,124.42084 118.39491,172.88082 -1.12107,10.59816 -31.99568,-8.57715 -46.71609,-10.65075 -15.57436,13.79051 83.45066,126.5852 91.17834,151.34137 5.60565,17.95811 -59.7143,3.57144 -76.85715,12.5 0,20.35714 115.71301,86.37322 122.57143,109.64286 5.14158,17.44465 -80.85715,12.14287 -80.85715,32.50001 0,20.35714 78.05377,68.24207 80.85715,89.64285 2.52996,19.3135 -39.43629,33.18247 -59.14285,32.5 -109.47522,-3.79131 -155.61087,1.46291 -264.85716,2.85715 -21.9876,0.28061 -103.00925,-17.24462 -98.85714,-35.35715 5.18122,-22.60176 89.71429,-75 89.71429,-95.35714 0,-20.35714 -96.04451,-9.97723 -89.71429,-26.78572 9.00312,-23.9058 115.64723,-94.77624 104.28572,-103.92857 -14.35278,-11.56195 -53.45058,22.11102 -67.14287,4.64286 -15.55527,-19.84488 98.32676,-134.19552 98.32676,-154.82677 -2.43094,-4.424 -42.70779,8.71326 -49.18243,-1.22476 z"
         id="path6442" />
      <path
         inkscape:connector-curvature="0"
         style="fill:#2c2c2c;fill-opacity:1;stroke:none"
         d="m 571.59554,745.26507 c -42.29027,36.20327 -58.45154,9.10478 -76.97762,17.12236 -13.98188,6.05098 -31.03531,18.80855 -52.57455,21.42173 -14.40991,1.74824 -28.04087,-10.12014 -44.93882,-11.11585 -19.71158,-1.16151 -31.57954,14.90718 -54.00392,13.28986 -25.18796,-1.81663 -35.01305,-14.95305 -60.12487,-15.29981 -19.86522,-0.2743 -59.22608,15.41822 -71.42047,0.5377 -19.02387,-23.21434 -63.70533,-9.00934 -68.01886,-31.2244 -7.20629,-37.11303 209.6249,-217.62796 227.80095,-217.62796 18.17605,0 212.1121,203.52966 200.25816,222.89637 z"
         id="path6444" />
      <path
         inkscape:connector-curvature="0"
         style="fill:#2c2c2c;fill-opacity:1;stroke:none"
         d="m 562.33567,616.27399 c -31.75343,9.86118 -52.64464,-1.91233 -71.17072,6.10525 -13.98188,6.05098 -38.93794,23.29835 -70.9558,23.81581 -29.02735,0.46912 -57.75472,-34.89916 -81.09998,-18.17926 -32.78738,23.48236 -90.28268,24.93358 -101.25192,6.31157 -20.5534,-34.89257 -90.40964,-3.74093 -90.40964,-25.95599 0,-37.80618 188.60943,-181.76049 206.78548,-181.76049 18.17605,0 213.371,162.39377 208.10258,189.66311 z"
         id="path6446" />
      <path
         inkscape:connector-curvature="0"
         style="fill:#2c2c2c;fill-opacity:1;stroke:none"
         d="m 521.18377,498.28034 c -11.27154,21.63819 -50.06451,-10.93784 -68.47522,-3.11643 -7.99261,3.3955 -33.17901,18.84337 -54.85209,19.86551 -18.28298,0.86226 -42.23009,-28.89248 -67.33223,-14.94835 -20.93344,11.62842 -57.12029,24.3542 -72.27562,8.94578 -19.47541,-19.80065 -73.28727,25.23537 -73.28727,-10.15074 0,-37.80618 155.6818,-237.07889 173.85785,-237.07889 18.17605,0 167.633,209.21378 162.36458,236.48312 z"
         id="path6448" />
      <path
         inkscape:connector-curvature="0"
         style="fill:#2c2c2c;fill-opacity:1;stroke:none"
         d="m 477.6018,350.85666 c -9.15161,11.14816 -38.01184,-16.73439 -66.54349,-1.22876 -30.52007,16.58624 -94.91257,12.13079 -110.93063,4.25344 -22.17819,-10.90677 -61.54974,13.31594 -72.02837,-0.0651 -10.12845,-36.42419 111.97721,-172.06048 130.15326,-172.06048 18.17605,0 128.92963,149.37748 119.34923,169.10086 z"
         id="path6450" />
    </g>
  </g>
  <path
     style="fill:url(#linearGradient3144);fill-opacity:1;stroke:#000000;stroke-width:9;stroke-miterlimit:4;stroke-opacity:1"
     d="m 303.5474,463.19958 44.19778,0 c 9.55534,0 17.24791,7.69257 17.24791,17.24791 l 0,120.73539 c 0,9.55535 -7.69257,11.24792 -17.24791,11.24792 l -44.19778,0 c -9.55534,0 -17.24791,-1.69257 -17.24791,-11.24792 l 0,-120.73539 c 0,-9.55534 7.69257,-17.24791 17.24791,-17.24791 z"
     id="rect3714"
     inkscape:connector-curvature="0" />
  <path
     inkscape:connector-curvature="0"
     style="fill:#134813;fill-opacity:1;stroke:#000000;stroke-width:9;stroke-miterlimit:4;stroke-opacity:1"
     d="m -211.06868,209.52001 c -11.51669,-38.1366 109.20758,-180.492356 127.998526,-180.377056 20.10894,0.13147 117.66195,124.420836 118.39491,172.880816 -1.12107,10.59816 -31.9956797,-8.57715 -46.71609,-10.65075 -15.57436,13.79051 83.45066,126.5852 91.17834,151.34137 5.60565,17.95811 -59.7143,3.57144 -76.8571497,12.5 0,20.35714 115.7130137,86.37322 122.5714337,109.64286 5.14158,17.44465 -80.857154,12.14287 -80.857154,32.50001 0,20.35714 78.053774,68.24207 80.857154,89.64285 2.52996,19.3135 -39.436294,33.18247 -59.142854,32.5 -109.47522,-3.79131 -155.61087,1.46291 -264.857156,2.85715 -21.9876,0.28061 -103.00925,-17.24462 -98.85714,-35.35715 5.18122,-22.60176 89.71429,-75 89.71429,-95.35714 0,-20.35714 -96.04451,-9.97723 -89.71429,-26.78572 9.00312,-23.9058 115.64723,-94.77624 104.28572,-103.92857 -14.35278,-11.56195 -53.45058,22.11102 -67.14287,4.64286 -15.55527,-19.84488 98.32676,-134.19552 98.32676,-154.82677 -2.43094,-4.424 -42.70779,8.71326 -49.18243,-1.22476 z"
     id="rect1872" />
  <path
     inkscape:connector-curvature="0"
     style="fill:url(#linearGradient3164);fill-opacity:1;stroke:#000000;stroke-width:9;stroke-miterlimit:4;stroke-opacity:1"
     d="m 556.64733,376.32266 c -42.29027,36.20327 -58.45154,9.10478 -76.97762,17.12236 -13.98188,6.05098 -31.03531,18.80855 -52.57455,21.42173 -14.40991,1.74824 -28.04087,-10.12014 -44.93882,-11.11585 -19.71158,-1.16151 -31.57954,14.90718 -54.00392,13.28986 -25.18796,-1.81663 -35.01305,-14.95305 -60.12487,-15.29981 -19.86522,-0.2743 -59.22608,15.41822 -71.42047,0.5377 -19.02387,-23.21434 -63.70533,-9.00934 -68.01886,-31.2244 -7.20629,-37.11303 209.6249,-217.62796 227.80095,-217.62796 18.17605,0 212.1121,203.52966 200.25816,222.89637 z"
     id="path2770" />
  <path
     inkscape:connector-curvature="0"
     style="fill:url(#linearGradient3161);fill-opacity:1;stroke:#000000;stroke-width:9;stroke-miterlimit:4;stroke-opacity:1"
     d="m 895.33139,604.37208 c -31.75343,9.86118 -52.64464,-1.91233 -71.17072,6.10525 -13.98188,6.05098 -38.93794,23.29835 -70.9558,23.81581 -29.02735,0.46912 -57.75472,-34.89916 -81.09998,-18.17926 -32.78738,23.48236 -90.28268,24.93358 -101.25192,6.31157 -20.5534,-34.89257 -90.40964,-3.74093 -90.40964,-25.95599 0,-37.80618 188.60943,-181.76049 206.78548,-181.76049 18.17605,0 213.371,162.39377 208.10258,189.66311 z"
     id="path2768" />
  <path
     inkscape:connector-curvature="0"
     style="fill:url(#linearGradient3158);fill-opacity:1;stroke:#000000;stroke-width:9;stroke-miterlimit:4;stroke-opacity:1"
     d="m 884.88042,376.08248 c -11.27154,21.63819 -50.06451,-10.93784 -68.47522,-3.11643 -7.99261,3.3955 -33.17901,18.84337 -54.85209,19.86551 -18.28298,0.86226 -42.23009,-28.89248 -67.33223,-14.94835 -20.93344,11.62842 -57.12029,24.3542 -72.27562,8.94578 -19.47541,-19.80065 -73.28727,25.23537 -73.28727,-10.15074 0,-37.80618 155.6818,-237.07889 173.85785,-237.07889 18.17605,0 167.633,209.21378 162.36458,236.48312 z"
     id="path2766" />
  <path
     inkscape:connector-curvature="0"
     style="fill:url(#linearGradient3155);fill-opacity:1;stroke:#000000;stroke-width:9;stroke-miterlimit:4;stroke-opacity:1"
     d="m -407.20622,243.44073 c -9.15161,11.14816 -38.01184,-16.73439 -66.54349,-1.22876 -30.52007,16.58624 -94.91257,12.13079 -110.93063,4.25344 -22.17819,-10.90677 -61.54974,13.31594 -72.02837,-0.0651 -10.12845,-36.42419 235.91802,-235.736487 254.09407,-235.736487 18.17605,0 203.97636,151.651617 -4.59158,232.776867 z"
     id="path2763"
     sodipodi:nodetypes="csscscc" />
</svg>
